<svg xmlns="http://www.w3.org/2000/svg" xmlns:xlink="http://www.w3.org/1999/xlink" width="12" height="12" viewBox="0 0 12 12"><defs><style>.a{fill:none;}.b{clip-path:url(#a);}.c{fill:#999;}</style><clipPath id="a"><path class="a" d="M16.574-20a5.574,5.574,0,0,1,5.574,5.574A5.551,5.551,0,0,1,20.8-10.8a.371.371,0,0,1,.04.035L22.866-8.74h0a.429.429,0,0,1,.017.606.429.429,0,0,1-.606.017l-.017-.017-2.022-2.021h0a.434.434,0,0,1-.035-.04h0a5.549,5.549,0,0,1-3.629,1.344A5.574,5.574,0,0,1,11-14.426,5.574,5.574,0,0,1,16.574-20Zm0,.858a4.716,4.716,0,0,0-4.717,4.717,4.717,4.717,0,0,0,4.717,4.717,4.717,4.717,0,0,0,4.717-4.717A4.716,4.716,0,0,0,16.574-19.142Z"/></clipPath></defs><g class="b" transform="translate(-11 20)"><path class="c" d="M10-21H24.045V-6.955H10Z"/></g></svg>