<svg xmlns="http://www.w3.org/2000/svg" width="14" height="14" viewBox="0 0 14 14"><defs><style>.a{fill:#fff;}</style></defs><path class="a" d="M-3489-885.162l-.023-.023-2.3-2.3a6.484,6.484,0,0,1-4.156,1.507h-.011a6.517,6.517,0,0,1-6.51-6.51,6.517,6.517,0,0,1,6.51-6.511,6.517,6.517,0,0,1,6.51,6.511,6.508,6.508,0,0,1-1.507,4.165l2.3,2.3a.592.592,0,0,1,.021.834.592.592,0,0,1-.43.185A.591.591,0,0,1-3489-885.162Zm-11.818-7.328a5.333,5.333,0,0,0,5.327,5.327,5.332,5.332,0,0,0,5.326-5.327,5.332,5.332,0,0,0-5.326-5.327A5.333,5.333,0,0,0-3500.816-892.49Z" transform="translate(3502 899)"/></svg>